<?xml version="1.0" standalone="no"?>
<!DOCTYPE svg PUBLIC "-//W3C//DTD SVG 20010904//EN"
 "http://www.w3.org/TR/2001/REC-SVG-20010904/DTD/svg10.dtd">
<svg version="1.0" xmlns="http://www.w3.org/2000/svg"
 width="500.000000pt" height="500.000000pt" viewBox="0 0 500.000000 500.000000"
 preserveAspectRatio="xMidYMid meet">
<metadata>
Created by potrace 1.11, written by Peter Selinger 2001-2013
</metadata>
<g transform="translate(0.000000,500.000000) scale(0.100000,-0.100000)"
fill="#000000" stroke="none">
<path d="M1515 4212 c74 -127 144 -314 176 -469 26 -131 36 -406 19 -551 -23
-198 -92 -413 -184 -574 l-45 -78 58 0 58 0 51 78 c103 157 181 349 218 539
25 123 25 368 1 483 -40 188 -105 354 -211 534 l-57 96 -59 0 -59 0 34 -58z"/>
<path d="M3344 4185 c-234 -359 -294 -809 -160 -1202 37 -107 91 -225 158
-340 l60 -103 58 0 58 0 -67 133 c-116 230 -159 401 -168 679 -11 347 54 618
212 876 l26 42 -61 0 -60 0 -56 -85z"/>
<path d="M1378 2383 c-51 -58 -156 -256 -196 -368 -79 -224 -103 -473 -67
-680 34 -197 89 -345 204 -548 l66 -117 57 0 c32 0 58 2 58 5 0 2 -22 46 -49
97 -96 179 -148 344 -174 548 -44 347 5 643 154 938 38 75 69 138 69 139 0 2
-24 3 -53 3 -39 0 -58 -5 -69 -17z"/>
<path d="M2010 2397 c0 -2 27 -57 59 -123 120 -240 161 -408 168 -686 10 -331
-38 -552 -178 -817 -27 -52 -49 -95 -49 -97 0 -2 25 -4 55 -4 l55 0 54 83
c104 159 174 333 212 522 28 141 26 389 -4 525 -39 175 -103 329 -212 514
l-51 86 -54 0 c-30 0 -55 -2 -55 -3z"/>
<path d="M2841 2341 c-256 -376 -318 -856 -164 -1271 34 -93 123 -273 176
-357 27 -43 27 -43 88 -43 48 0 59 3 51 13 -20 24 -120 234 -146 307 -61 168
-86 327 -86 548 0 326 65 575 215 820 l26 42 -60 0 -60 0 -40 -59z"/>
<path d="M3501 2393 c2 -5 29 -58 60 -118 120 -232 169 -445 173 -740 4 -281
-57 -534 -185 -772 l-50 -93 58 0 58 0 52 83 c157 248 233 503 233 777 0 271
-78 523 -247 801 l-40 64 -57 3 c-32 2 -56 -1 -55 -5z"/>
</g>
</svg>
